<svg width="718" height="431" viewBox="0 0 718 431" fill="none" xmlns="http://www.w3.org/2000/svg">
<g clip-path="url(#clip0_75_3)">
<path d="M120.429 410.019C119.854 410.046 119.285 409.895 118.799 409.587C118.312 409.279 117.932 408.829 117.71 408.298C117.488 407.767 117.435 407.18 117.557 406.618C117.68 406.055 117.972 405.544 118.395 405.153L118.587 404.389C118.562 404.327 118.536 404.266 118.511 404.205C117.931 402.837 116.961 401.67 115.721 400.852C114.48 400.033 113.026 399.6 111.54 399.605C110.054 399.611 108.603 400.055 107.369 400.883C106.135 401.71 105.173 402.884 104.604 404.257C102.329 409.735 99.4336 415.222 98.7205 421.015C98.4065 423.575 98.539 426.17 99.1121 428.685C93.7698 417.032 90.9958 404.366 90.9779 391.546C90.9768 388.329 91.1556 385.115 91.5133 381.918C91.809 379.297 92.2191 376.695 92.7438 374.112C95.6072 360.094 101.755 346.955 110.682 335.774C115.003 333.417 118.497 329.791 120.694 325.387C121.49 323.804 122.052 322.113 122.364 320.369C121.876 320.433 120.526 313.01 120.894 312.554C120.214 311.524 118.999 311.011 118.257 310.006C114.567 305.003 109.484 305.877 106.831 312.674C101.162 315.535 101.107 320.28 104.585 324.843C106.798 327.747 107.102 331.675 109.044 334.783C108.844 335.039 108.636 335.287 108.437 335.543C104.785 340.238 101.602 345.28 98.9345 350.596C99.5833 344.64 98.8089 338.616 96.675 333.018C94.5123 327.8 90.4587 323.406 86.889 318.896C82.6012 313.479 73.8087 315.843 73.0533 322.71C73.0459 322.777 73.0388 322.843 73.0319 322.91C73.5621 323.209 74.0811 323.526 74.5889 323.862C75.2269 324.289 75.7212 324.898 76.0072 325.61C76.2931 326.322 76.3573 327.103 76.1913 327.852C76.0254 328.601 75.637 329.283 75.0771 329.808C74.5172 330.332 73.8119 330.675 73.0536 330.792L72.9759 330.804C73.1648 332.715 73.4987 334.609 73.9747 336.469C69.3952 354.179 79.282 360.63 93.399 360.92C93.7106 361.079 94.0143 361.239 94.326 361.391C91.6454 368.988 89.964 376.9 89.3241 384.93C88.9618 389.668 88.9831 394.427 89.388 399.161L89.364 398.993C88.3412 393.729 85.533 388.979 81.4137 385.546C75.2954 380.52 66.6515 378.669 60.051 374.629C59.3496 374.179 58.5339 373.938 57.7003 373.936C56.8667 373.934 56.0499 374.171 55.3463 374.618C54.6426 375.065 54.0815 375.703 53.729 376.459C53.3765 377.214 53.2473 378.055 53.3568 378.881C53.3657 378.94 53.3747 378.999 53.3838 379.058C54.3678 379.458 55.3258 379.92 56.2523 380.44C56.7825 380.739 57.3016 381.056 57.8094 381.392C58.4473 381.819 58.9417 382.428 59.2276 383.14C59.5135 383.851 59.5777 384.633 59.4117 385.382C59.2458 386.131 58.8574 386.813 58.2975 387.338C57.7377 387.862 57.0323 388.205 56.274 388.322L56.1963 388.334C56.1404 388.342 56.0925 388.35 56.0366 388.358C57.7178 392.372 60.0774 396.067 63.012 399.281C65.8755 414.741 78.174 416.208 91.3296 411.706H91.3376C92.781 417.978 94.8724 424.084 97.578 429.924H119.871C119.951 429.676 120.023 429.42 120.095 429.172C118.031 429.302 115.96 429.179 113.926 428.805C115.58 426.775 117.234 424.73 118.888 422.7C118.925 422.662 118.96 422.622 118.992 422.58C119.831 421.542 120.678 420.511 121.517 419.472L121.517 419.471C121.562 416.287 121.197 413.111 120.43 410.02L120.429 410.019Z" fill="#F2F2F2"/>
<path d="M586.052 410.019C586.627 410.046 587.196 409.895 587.682 409.587C588.169 409.279 588.549 408.829 588.771 408.298C588.993 407.767 589.046 407.18 588.924 406.618C588.801 406.055 588.509 405.544 588.086 405.153L587.894 404.389C587.919 404.327 587.945 404.266 587.97 404.205C588.55 402.837 589.52 401.67 590.76 400.852C592.001 400.033 593.455 399.6 594.941 399.605C596.427 399.611 597.878 400.055 599.112 400.883C600.346 401.71 601.308 402.884 601.877 404.257C604.152 409.735 607.047 415.222 607.76 421.015C608.074 423.575 607.942 426.17 607.369 428.685C612.711 417.032 615.485 404.366 615.503 391.546C615.504 388.329 615.325 385.115 614.968 381.918C614.672 379.297 614.262 376.695 613.737 374.112C610.874 360.094 604.726 346.955 595.799 335.774C591.478 333.417 587.984 329.791 585.787 325.387C584.991 323.804 584.429 322.113 584.117 320.369C584.605 320.433 585.955 313.01 585.587 312.554C586.267 311.524 587.482 311.011 588.224 310.006C591.914 305.003 596.997 305.877 599.65 312.674C605.319 315.535 605.374 320.28 601.896 324.843C599.683 327.747 599.379 331.675 597.437 334.783C597.637 335.039 597.845 335.287 598.044 335.543C601.696 340.238 604.878 345.28 607.546 350.596C606.898 344.64 607.672 338.616 609.806 333.018C611.969 327.8 616.022 323.406 619.592 318.896C623.88 313.479 632.672 315.843 633.428 322.71C633.435 322.777 633.442 322.843 633.449 322.91C632.919 323.209 632.4 323.526 631.892 323.862C631.254 324.289 630.76 324.898 630.474 325.61C630.188 326.322 630.124 327.103 630.29 327.852C630.456 328.601 630.844 329.283 631.404 329.808C631.964 330.332 632.669 330.675 633.427 330.792L633.505 330.804C633.316 332.715 632.982 334.609 632.506 336.469C637.086 354.179 627.199 360.63 613.082 360.92C612.77 361.079 612.467 361.239 612.155 361.391C614.836 368.988 616.517 376.9 617.157 384.93C617.519 389.668 617.498 394.427 617.093 399.161L617.117 398.993C618.14 393.729 620.948 388.979 625.067 385.546C631.186 380.52 639.829 378.669 646.43 374.629C647.131 374.179 647.947 373.938 648.781 373.936C649.614 373.934 650.431 374.171 651.135 374.618C651.838 375.065 652.4 375.703 652.752 376.459C653.105 377.214 653.234 378.055 653.124 378.881C653.115 378.94 653.106 378.999 653.097 379.058C652.113 379.458 651.155 379.92 650.229 380.44C649.698 380.739 649.179 381.056 648.672 381.392C648.034 381.819 647.539 382.428 647.253 383.14C646.967 383.851 646.903 384.633 647.069 385.382C647.235 386.131 647.624 386.813 648.183 387.338C648.743 387.862 649.449 388.205 650.207 388.322L650.285 388.334C650.341 388.342 650.388 388.35 650.444 388.358C648.763 392.372 646.404 396.067 643.469 399.281C640.605 414.741 628.307 416.208 615.151 411.706H615.143C613.7 417.978 611.609 424.084 608.903 429.924H586.61C586.53 429.676 586.458 429.42 586.386 429.172C588.45 429.302 590.521 429.179 592.555 428.805C590.901 426.775 589.247 424.73 587.593 422.7C587.556 422.662 587.521 422.622 587.489 422.58C586.65 421.542 585.803 420.511 584.964 419.472L584.964 419.471C584.919 416.287 585.284 413.111 586.051 410.02L586.052 410.019Z" fill="#F2F2F2"/>
<path d="M146.07 429.424H182.044C188.196 408.708 182.077 359.749 190.186 339.738C205.745 301.369 225.622 260.885 262.721 242.151C278.561 234.151 295.832 231.027 313.47 231.197C337.836 231.428 362.886 237.969 385.821 246.637C395.203 250.175 404.499 254.065 413.758 258.04C448.643 273.03 483.149 289.358 520.664 293.771C568.135 299.351 623.948 278.112 636.914 232.364C646.81 197.339 628.988 160.976 610.298 129.695C591.608 98.4138 570.716 64.9445 574.129 28.7277C574.141 28.6061 574.153 28.4723 574.178 28.3508C575.462 15.3424 583.229 5.99358 594.079 0H546.84C546.216 33.7854 565.762 63.6072 583.351 93.0524C602.041 124.321 619.863 160.696 609.968 195.722C597.002 241.458 489.64 187.845 442.169 182.253C428.763 180.685 450.058 186.265 437.276 182.253C417.228 175.968 415.006 233.616 395.496 225.155C383.35 219.878 371.192 214.638 358.874 209.982C353.774 208.049 348.563 206.238 343.291 204.56C343.279 204.56 343.279 204.56 343.267 204.548C307.868 193.339 269.154 188.974 236.447 205.18C236.227 205.289 235.994 205.399 235.774 205.508C198.675 224.231 178.799 264.715 163.24 303.083C150.384 334.802 152.406 395.967 146.07 429.424Z" fill="#F2F2F2"/>
<path d="M346.212 428.363C437.463 428.363 511.436 354.391 511.436 263.14C511.436 171.89 437.463 97.917 346.212 97.917C254.962 97.917 180.989 171.89 180.989 263.14C180.989 354.391 254.962 428.363 346.212 428.363Z" fill="white"/>
<path d="M345.741 429.424C182.269 433.179 178.684 355.516 178.684 263.139C178.684 170.765 253.837 95.6123 346.212 95.6123C438.588 95.6123 513.741 170.765 513.741 263.139C513.741 355.516 438.116 429.424 345.741 429.424ZM346.212 100.222C256.378 100.222 184.807 173.319 183.294 263.139C181.887 346.683 270.638 450.934 346.212 426.059C386.741 381.424 501.325 333.35 509.131 263.139C519.058 173.857 436.046 100.222 346.212 100.222V100.222Z" fill="#3F3D56"/>
<path d="M323.673 349.131C320.819 349.131 318.005 348.467 315.454 347.191C312.902 345.914 310.682 344.061 308.971 341.779L263.896 281.677C262.446 279.746 261.391 277.549 260.792 275.21C260.192 272.872 260.058 270.438 260.399 268.048C260.74 265.658 261.549 263.359 262.779 261.281C264.008 259.204 265.636 257.389 267.567 255.94C269.498 254.492 271.696 253.438 274.035 252.839C276.374 252.241 278.808 252.108 281.197 252.451C283.587 252.793 285.886 253.602 287.963 254.833C290.04 256.064 291.854 257.692 293.302 259.624L322.792 298.941L398.533 185.331C401.238 181.278 405.441 178.465 410.22 177.51C414.998 176.556 419.96 177.538 424.015 180.241C428.069 182.944 430.884 187.146 431.841 191.924C432.798 196.702 431.818 201.665 429.117 205.721L338.966 340.947C337.336 343.392 335.142 345.411 332.57 346.834C329.998 348.258 327.122 349.043 324.184 349.126C324.014 349.128 323.843 349.131 323.673 349.131Z" fill="#F2F2F2"/>
<path d="M5.26726e-06 429.552C-0.000460809 429.709 0.0300083 429.864 0.0896507 430.008C0.149293 430.153 0.236937 430.284 0.347539 430.395C0.458142 430.505 0.58951 430.593 0.734106 430.653C0.878702 430.712 1.03367 430.743 1.19008 430.742H716.48C716.796 430.742 717.098 430.617 717.322 430.394C717.545 430.171 717.67 429.868 717.67 429.552C717.67 429.237 717.545 428.934 717.322 428.711C717.098 428.488 716.796 428.362 716.48 428.362H1.19008C1.03368 428.362 0.878714 428.392 0.734121 428.452C0.589527 428.512 0.458156 428.599 0.347555 428.71C0.236954 428.82 0.14931 428.952 0.0896659 429.096C0.0300216 429.241 -0.0004555 429.396 5.26726e-06 429.552V429.552Z" fill="#CCCCCC"/>
<path d="M451.72 417.887H442.046L437.444 380.57L451.723 380.571L451.72 417.887Z" fill="#FFB6B6"/>
<path d="M452.061 427.98L422.311 427.979V427.603C422.311 424.532 423.531 421.586 425.703 419.415C427.874 417.243 430.82 416.023 433.891 416.023H433.891L439.326 411.9L449.465 416.024L452.062 416.024L452.061 427.98Z" fill="#2F2E41"/>
<path d="M409.66 371.639L400.724 375.345L382.177 342.638L395.367 337.169L409.66 371.639Z" fill="#FFB6B6"/>
<path d="M413.841 380.831L386.36 392.227L386.216 391.88C385.039 389.043 385.038 385.855 386.212 383.017C387.386 380.179 389.64 377.924 392.476 376.747L392.477 376.747L395.917 370.857L406.863 370.782L409.262 369.787L413.841 380.831Z" fill="#2F2E41"/>
<path d="M462.782 205.609L394.124 212.783L384.94 243.715L353.134 294.829C353.134 294.829 375.328 332.183 373.244 331.776C371.16 331.369 375.325 341.551 378.243 340.96C381.16 340.369 384.194 347.008 382.177 348.189C380.16 349.369 388.252 359.35 388.252 359.35L400.62 348.25C403.25 328.407 400.072 310.747 388.748 296.148L424.181 257.895L430.9 255.107L436.234 397.054L455.96 397.378C461.403 369.377 464.138 344.175 459.883 326.197C459.883 326.197 460.495 272.188 462.827 272.779C465.16 273.369 463.183 266.333 463.183 266.333C463.183 266.333 461.14 260.341 463.65 257.855C466.16 255.369 464.593 240.748 464.593 240.748C468.741 226.912 467.492 215.487 462.782 205.609Z" fill="#200752"/>
<path d="M409.992 91.4588L428.972 86.5403L437.832 74.3203L458.874 76.907L463.353 93.5752L478.332 102.27C478.332 102.27 470.053 189.842 472.022 194.65C473.992 199.459 481.053 199.062 475.022 205.26C468.992 211.459 468.193 208.962 469.592 215.71C470.992 222.459 481.193 229.6 469.592 229.53C457.992 229.459 387.992 228.459 389.992 220.459C391.992 212.459 391.96 214.49 394.976 209.474C397.992 204.459 400.021 207.262 399.007 199.86C397.992 192.459 398.992 187.459 398.992 183.459C398.992 179.459 402.342 143.11 402.342 143.11L409.992 91.4588Z" fill="#E6E6E6"/>
<path d="M448.3 72.061C460.615 72.061 470.598 62.078 470.598 49.7634C470.598 37.4488 460.615 27.4658 448.3 27.4658C435.986 27.4658 426.003 37.4488 426.003 49.7634C426.003 62.078 435.986 72.061 448.3 72.061Z" fill="#FFB6B6"/>
<path d="M424.936 36.2695C426.894 37.8516 426.446 45.5463 428.628 44.2921C430.809 43.0379 431.263 40.7919 433.775 40.7684C435.823 40.8815 437.755 41.7557 439.192 43.2196C439.459 43.4612 439.714 43.7146 439.961 43.9651C440.187 43.8859 440.41 43.8141 440.644 43.7552C442.406 43.325 444.266 43.5869 445.841 44.4869C444.387 44.5907 443.002 45.149 441.883 46.0827C442.362 46.6201 442.849 47.1605 443.361 47.6599C447.631 51.8448 456.387 47.3882 462.274 46.3826C457.371 51.7366 458.338 54.7255 459.557 61.8817L459.562 62.2726C459.813 60.6223 465.098 60.7045 464.227 62.8943C463.133 65.0576 461.763 67.0705 460.153 68.8829C467.355 63.8937 473.169 57.0165 474.454 48.7091C474.718 46.9624 475.232 45.1803 474.735 43.4772C474.523 42.6161 474.033 41.8493 473.339 41.2966C472.646 40.7439 471.789 40.4364 470.903 40.4222C471.705 37.8739 471.802 35.1558 471.183 32.5569C470.563 29.958 469.252 27.5754 467.387 25.6625C465.522 23.7496 463.173 22.3779 460.591 21.6931C458.008 21.0083 455.289 21.0361 452.721 21.7735C450.379 22.606 448.094 23.5922 445.881 24.7255C443.648 25.8633 441.121 26.2914 438.638 25.9524C437.091 25.6329 435.524 24.8319 434.008 25.2854C432.251 25.8124 431.496 27.6679 430.791 29.4592C432.113 29.9419 433.261 30.8078 434.088 31.9462C432.722 31.4419 431.231 31.3814 429.828 31.7732C429.802 31.7777 429.777 31.7846 429.753 31.7937C428.162 34.6443 428.07 35.3433 424.936 36.2695Z" fill="#2F2E41"/>
<path d="M432.289 80.5666C420.868 79.6471 410.44 88.3814 405.685 98.8061C400.931 109.231 400.62 121.057 400.389 132.512L399.671 168.121C399.565 173.39 399.459 178.66 399.197 183.924C399.061 189.046 398.417 194.142 397.273 199.136C394.945 208.301 389.823 216.468 384.776 224.464C397.698 228.37 410.84 231.509 424.132 233.864C430.771 212.392 437.485 190.304 435.853 167.889C434.99 156.028 431.799 144.448 430.587 132.617C428.869 115.862 431.146 98.983 433.418 82.2939" fill="#200752"/>
<path d="M460.011 82.5693C471.324 84.3883 479.379 95.3491 481.522 106.605C483.665 117.86 481.159 129.422 478.663 140.604C476.077 152.191 473.49 163.778 470.904 175.365C469.756 180.508 468.608 185.653 467.613 190.828C466.646 195.856 470.694 202.305 470.741 207.424C470.826 216.88 468.99 224.668 471.994 233.634C458.514 234.359 445.002 234.288 431.531 233.418C430.181 210.985 428.904 187.934 435.812 166.547C439.468 155.231 445.317 144.739 449.304 133.535C454.951 117.667 456.748 100.73 458.505 83.9791" fill="#200752"/>
<path d="M467.552 244.221C466.712 242.757 466.477 241.023 466.896 239.388C467.315 237.753 468.355 236.346 469.796 235.466C470.091 235.292 470.401 235.142 470.721 235.019L469.279 185.903L484.905 181.926L478.946 239.148C479.354 240.515 479.298 241.98 478.786 243.312C478.274 244.644 477.335 245.769 476.117 246.512C475.419 246.928 474.646 247.203 473.843 247.32C473.039 247.437 472.22 247.395 471.433 247.196C470.646 246.997 469.905 246.645 469.254 246.16C468.603 245.675 468.053 245.066 467.638 244.368C467.608 244.32 467.58 244.271 467.552 244.221Z" fill="#FFB6B6"/>
<path d="M466.412 102.191C466.412 102.191 477.319 92.9673 486.498 111.411C495.676 129.854 490.547 171.988 489.255 174.237C487.963 176.486 487.174 173.353 487.882 179.347C488.457 184.222 485.036 183.613 486.263 184.653C489.5 187.396 480.437 187.708 485.091 190.126C489.746 192.543 468.913 192.995 468.913 192.995C468.913 192.995 466.393 191.196 468.143 184.41C469.126 180.598 471.587 179.204 468.962 177.44C466.338 175.676 471.674 170.224 471.677 169.027C471.681 167.831 463.357 141.664 463.357 141.664L466.412 102.191Z" fill="#200752"/>
<path d="M376.152 329.399C373.299 329.399 370.485 328.735 367.933 327.458C365.381 326.182 363.162 324.329 361.45 322.046L316.375 261.945C314.926 260.014 313.871 257.816 313.271 255.478C312.671 253.139 312.538 250.706 312.879 248.316C313.22 245.926 314.028 243.626 315.258 241.549C316.488 239.471 318.115 237.657 320.046 236.208C321.978 234.76 324.176 233.706 326.514 233.107C328.853 232.508 331.287 232.376 333.677 232.718C336.067 233.06 338.366 233.87 340.443 235.101C342.52 236.331 344.334 237.959 345.781 239.891L375.271 279.208L451.012 165.598C452.351 163.59 454.072 161.865 456.078 160.522C458.083 159.179 460.333 158.244 462.7 157.771C465.067 157.298 467.504 157.295 469.871 157.763C472.239 158.232 474.491 159.162 476.499 160.501C478.508 161.84 480.232 163.561 481.575 165.566C482.918 167.572 483.853 169.822 484.327 172.189C484.8 174.556 484.803 176.992 484.334 179.36C483.866 181.728 482.936 183.98 481.597 185.988L391.446 321.214C389.815 323.66 387.622 325.679 385.05 327.102C382.478 328.525 379.602 329.311 376.664 329.393C376.493 329.396 376.323 329.399 376.152 329.399Z" fill="#07E909"/>
<path d="M410.512 235.69C411.432 234.274 411.763 232.556 411.435 230.9C411.107 229.244 410.146 227.782 408.756 226.823C408.471 226.633 408.17 226.467 407.857 226.326L412.011 177.365L396.629 172.53L399.416 229.994C398.933 231.337 398.909 232.802 399.346 234.161C399.784 235.519 400.659 236.695 401.834 237.504C402.508 237.958 403.264 238.274 404.06 238.436C404.856 238.598 405.676 238.601 406.473 238.446C407.27 238.29 408.029 237.98 408.706 237.531C409.383 237.083 409.965 236.505 410.419 235.832C410.451 235.785 410.482 235.737 410.512 235.69Z" fill="#FFB6B6"/>
<path d="M419.514 94.0413C419.514 94.0413 409.133 84.2284 398.95 102.136C388.766 120.044 391.559 162.398 392.725 164.714C393.89 167.031 394.851 163.947 393.813 169.893C392.969 174.729 396.419 174.309 395.136 175.28C391.753 177.84 400.785 178.653 396.004 180.809C391.222 182.965 411.999 184.568 411.999 184.568C411.999 184.568 414.614 182.911 413.242 176.038C412.471 172.178 410.091 170.65 412.809 169.034C415.527 167.418 410.501 161.679 410.563 160.484C410.626 159.289 420.383 133.623 420.383 133.623L419.514 94.0413Z" fill="#200752"/>
</g>
<defs>
<clipPath id="clip0_75_3">
<rect width="717.67" height="430.743" fill="white"/>
</clipPath>
</defs>
</svg>
