<svg width="783" height="635" viewBox="0 0 783 635" fill="none" xmlns="http://www.w3.org/2000/svg">
<g clip-path="url(#clip0_68_178)">
<path d="M782.009 634.123H524.27V632.017H782.39L782.009 634.123Z" fill="#3F3D56"/>
<path d="M6.81285 13.6274C10.5758 13.6274 13.6262 10.577 13.6262 6.81407C13.6262 3.05117 10.5758 0.000732422 6.81285 0.000732422C3.04995 0.000732422 -0.000488281 3.05117 -0.000488281 6.81407C-0.000488281 10.577 3.04995 13.6274 6.81285 13.6274Z" fill="#E6E6E6"/>
<path d="M41.3016 13.6274C45.0645 13.6274 48.115 10.577 48.115 6.81407C48.115 3.05117 45.0645 0.000732422 41.3016 0.000732422C37.5387 0.000732422 34.4883 3.05117 34.4883 6.81407C34.4883 10.577 37.5387 13.6274 41.3016 13.6274Z" fill="#E6E6E6"/>
<path d="M75.7909 13.6274C79.5538 13.6274 82.6042 10.577 82.6042 6.81407C82.6042 3.05117 79.5538 0.000732422 75.7909 0.000732422C72.028 0.000732422 68.9775 3.05117 68.9775 6.81407C68.9775 10.577 72.028 13.6274 75.7909 13.6274Z" fill="#E6E6E6"/>
<path d="M110.28 13.6274C114.043 13.6274 117.093 10.577 117.093 6.81407C117.093 3.05117 114.043 0.000732422 110.28 0.000732422C106.517 0.000732422 103.466 3.05117 103.466 6.81407C103.466 10.577 106.517 13.6274 110.28 13.6274Z" fill="#E6E6E6"/>
<path d="M144.769 13.6274C148.532 13.6274 151.582 10.577 151.582 6.81407C151.582 3.05117 148.532 0.000732422 144.769 0.000732422C141.006 0.000732422 137.956 3.05117 137.956 6.81407C137.956 10.577 141.006 13.6274 144.769 13.6274Z" fill="#E6E6E6"/>
<path d="M179.258 13.6274C183.021 13.6274 186.071 10.577 186.071 6.81407C186.071 3.05117 183.021 0.000732422 179.258 0.000732422C175.495 0.000732422 172.444 3.05117 172.444 6.81407C172.444 10.577 175.495 13.6274 179.258 13.6274Z" fill="#E6E6E6"/>
<path d="M213.747 13.6274C217.51 13.6274 220.56 10.577 220.56 6.81407C220.56 3.05117 217.51 0.000732422 213.747 0.000732422C209.984 0.000732422 206.934 3.05117 206.934 6.81407C206.934 10.577 209.984 13.6274 213.747 13.6274Z" fill="#E6E6E6"/>
<path d="M248.236 13.6274C251.999 13.6274 255.049 10.577 255.049 6.81407C255.049 3.05117 251.999 0.000732422 248.236 0.000732422C244.473 0.000732422 241.422 3.05117 241.422 6.81407C241.422 10.577 244.473 13.6274 248.236 13.6274Z" fill="#E6E6E6"/>
<path d="M282.725 13.6274C286.488 13.6274 289.538 10.577 289.538 6.81407C289.538 3.05117 286.488 0.000732422 282.725 0.000732422C278.962 0.000732422 275.912 3.05117 275.912 6.81407C275.912 10.577 278.962 13.6274 282.725 13.6274Z" fill="#E6E6E6"/>
<path d="M317.214 13.6274C320.977 13.6274 324.028 10.577 324.028 6.81407C324.028 3.05117 320.977 0.000732422 317.214 0.000732422C313.451 0.000732422 310.401 3.05117 310.401 6.81407C310.401 10.577 313.451 13.6274 317.214 13.6274Z" fill="#E6E6E6"/>
<path d="M6.81285 48.5493C10.5758 48.5493 13.6262 45.4988 13.6262 41.7359C13.6262 37.973 10.5758 34.9226 6.81285 34.9226C3.04995 34.9226 -0.000488281 37.973 -0.000488281 41.7359C-0.000488281 45.4988 3.04995 48.5493 6.81285 48.5493Z" fill="#E6E6E6"/>
<path d="M41.3016 48.5493C45.0645 48.5493 48.115 45.4988 48.115 41.7359C48.115 37.973 45.0645 34.9226 41.3016 34.9226C37.5387 34.9226 34.4883 37.973 34.4883 41.7359C34.4883 45.4988 37.5387 48.5493 41.3016 48.5493Z" fill="#E6E6E6"/>
<path d="M75.7909 48.5493C79.5538 48.5493 82.6042 45.4988 82.6042 41.7359C82.6042 37.973 79.5538 34.9226 75.7909 34.9226C72.028 34.9226 68.9775 37.973 68.9775 41.7359C68.9775 45.4988 72.028 48.5493 75.7909 48.5493Z" fill="#E6E6E6"/>
<path d="M110.28 48.5493C114.043 48.5493 117.093 45.4988 117.093 41.7359C117.093 37.973 114.043 34.9226 110.28 34.9226C106.517 34.9226 103.466 37.973 103.466 41.7359C103.466 45.4988 106.517 48.5493 110.28 48.5493Z" fill="#07E909"/>
<path d="M144.769 48.5493C148.532 48.5493 151.582 45.4988 151.582 41.7359C151.582 37.973 148.532 34.9226 144.769 34.9226C141.006 34.9226 137.956 37.973 137.956 41.7359C137.956 45.4988 141.006 48.5493 144.769 48.5493Z" fill="#E6E6E6"/>
<path d="M179.258 48.5493C183.021 48.5493 186.071 45.4988 186.071 41.7359C186.071 37.973 183.021 34.9226 179.258 34.9226C175.495 34.9226 172.444 37.973 172.444 41.7359C172.444 45.4988 175.495 48.5493 179.258 48.5493Z" fill="#E6E6E6"/>
<path d="M213.747 48.5493C217.51 48.5493 220.56 45.4988 220.56 41.7359C220.56 37.973 217.51 34.9226 213.747 34.9226C209.984 34.9226 206.934 37.973 206.934 41.7359C206.934 45.4988 209.984 48.5493 213.747 48.5493Z" fill="#E6E6E6"/>
<path d="M248.236 48.5493C251.999 48.5493 255.049 45.4988 255.049 41.7359C255.049 37.973 251.999 34.9226 248.236 34.9226C244.473 34.9226 241.422 37.973 241.422 41.7359C241.422 45.4988 244.473 48.5493 248.236 48.5493Z" fill="#E6E6E6"/>
<path d="M282.725 48.5493C286.488 48.5493 289.538 45.4988 289.538 41.7359C289.538 37.973 286.488 34.9226 282.725 34.9226C278.962 34.9226 275.912 37.973 275.912 41.7359C275.912 45.4988 278.962 48.5493 282.725 48.5493Z" fill="#E6E6E6"/>
<path d="M317.214 48.5493C320.977 48.5493 324.028 45.4988 324.028 41.7359C324.028 37.973 320.977 34.9226 317.214 34.9226C313.451 34.9226 310.401 37.973 310.401 41.7359C310.401 45.4988 313.451 48.5493 317.214 48.5493Z" fill="#E6E6E6"/>
<path d="M6.81285 83.4712C10.5758 83.4712 13.6262 80.4207 13.6262 76.6578C13.6262 72.8949 10.5758 69.8445 6.81285 69.8445C3.04995 69.8445 -0.000488281 72.8949 -0.000488281 76.6578C-0.000488281 80.4207 3.04995 83.4712 6.81285 83.4712Z" fill="#E6E6E6"/>
<path d="M41.3016 83.4712C45.0645 83.4712 48.115 80.4207 48.115 76.6578C48.115 72.8949 45.0645 69.8445 41.3016 69.8445C37.5387 69.8445 34.4883 72.8949 34.4883 76.6578C34.4883 80.4207 37.5387 83.4712 41.3016 83.4712Z" fill="#E6E6E6"/>
<path d="M75.7909 83.4712C79.5538 83.4712 82.6042 80.4207 82.6042 76.6578C82.6042 72.8949 79.5538 69.8445 75.7909 69.8445C72.028 69.8445 68.9775 72.8949 68.9775 76.6578C68.9775 80.4207 72.028 83.4712 75.7909 83.4712Z" fill="#E6E6E6"/>
<path d="M110.28 83.4712C114.043 83.4712 117.093 80.4207 117.093 76.6578C117.093 72.8949 114.043 69.8445 110.28 69.8445C106.517 69.8445 103.466 72.8949 103.466 76.6578C103.466 80.4207 106.517 83.4712 110.28 83.4712Z" fill="#E6E6E6"/>
<path d="M144.769 83.4712C148.532 83.4712 151.582 80.4207 151.582 76.6578C151.582 72.8949 148.532 69.8445 144.769 69.8445C141.006 69.8445 137.956 72.8949 137.956 76.6578C137.956 80.4207 141.006 83.4712 144.769 83.4712Z" fill="#E6E6E6"/>
<path d="M179.258 83.4712C183.021 83.4712 186.071 80.4207 186.071 76.6578C186.071 72.8949 183.021 69.8445 179.258 69.8445C175.495 69.8445 172.444 72.8949 172.444 76.6578C172.444 80.4207 175.495 83.4712 179.258 83.4712Z" fill="#E6E6E6"/>
<path d="M213.747 83.4712C217.51 83.4712 220.56 80.4207 220.56 76.6578C220.56 72.8949 217.51 69.8445 213.747 69.8445C209.984 69.8445 206.934 72.8949 206.934 76.6578C206.934 80.4207 209.984 83.4712 213.747 83.4712Z" fill="#E6E6E6"/>
<path d="M248.236 83.4712C251.999 83.4712 255.049 80.4207 255.049 76.6578C255.049 72.8949 251.999 69.8445 248.236 69.8445C244.473 69.8445 241.422 72.8949 241.422 76.6578C241.422 80.4207 244.473 83.4712 248.236 83.4712Z" fill="#E6E6E6"/>
<path d="M282.725 83.4712C286.488 83.4712 289.538 80.4207 289.538 76.6578C289.538 72.8949 286.488 69.8445 282.725 69.8445C278.962 69.8445 275.912 72.8949 275.912 76.6578C275.912 80.4207 278.962 83.4712 282.725 83.4712Z" fill="#E6E6E6"/>
<path d="M317.214 83.4712C320.977 83.4712 324.028 80.4207 324.028 76.6578C324.028 72.8949 320.977 69.8445 317.214 69.8445C313.451 69.8445 310.401 72.8949 310.401 76.6578C310.401 80.4207 313.451 83.4712 317.214 83.4712Z" fill="#E6E6E6"/>
<path d="M6.81285 118.393C10.5758 118.393 13.6262 115.343 13.6262 111.58C13.6262 107.817 10.5758 104.767 6.81285 104.767C3.04995 104.767 -0.000488281 107.817 -0.000488281 111.58C-0.000488281 115.343 3.04995 118.393 6.81285 118.393Z" fill="#E6E6E6"/>
<path d="M41.3016 118.393C45.0645 118.393 48.115 115.343 48.115 111.58C48.115 107.817 45.0645 104.767 41.3016 104.767C37.5387 104.767 34.4883 107.817 34.4883 111.58C34.4883 115.343 37.5387 118.393 41.3016 118.393Z" fill="#E6E6E6"/>
<path d="M75.7909 118.393C79.5538 118.393 82.6042 115.343 82.6042 111.58C82.6042 107.817 79.5538 104.767 75.7909 104.767C72.028 104.767 68.9775 107.817 68.9775 111.58C68.9775 115.343 72.028 118.393 75.7909 118.393Z" fill="#E6E6E6"/>
<path d="M110.28 118.393C114.043 118.393 117.093 115.343 117.093 111.58C117.093 107.817 114.043 104.767 110.28 104.767C106.517 104.767 103.466 107.817 103.466 111.58C103.466 115.343 106.517 118.393 110.28 118.393Z" fill="#E6E6E6"/>
<path d="M144.769 118.393C148.532 118.393 151.582 115.343 151.582 111.58C151.582 107.817 148.532 104.767 144.769 104.767C141.006 104.767 137.956 107.817 137.956 111.58C137.956 115.343 141.006 118.393 144.769 118.393Z" fill="#E6E6E6"/>
<path d="M179.258 118.393C183.021 118.393 186.071 115.343 186.071 111.58C186.071 107.817 183.021 104.767 179.258 104.767C175.495 104.767 172.444 107.817 172.444 111.58C172.444 115.343 175.495 118.393 179.258 118.393Z" fill="#E6E6E6"/>
<path d="M213.747 118.393C217.51 118.393 220.56 115.343 220.56 111.58C220.56 107.817 217.51 104.767 213.747 104.767C209.984 104.767 206.934 107.817 206.934 111.58C206.934 115.343 209.984 118.393 213.747 118.393Z" fill="#E6E6E6"/>
<path d="M248.236 118.393C251.999 118.393 255.049 115.343 255.049 111.58C255.049 107.817 251.999 104.767 248.236 104.767C244.473 104.767 241.422 107.817 241.422 111.58C241.422 115.343 244.473 118.393 248.236 118.393Z" fill="#E6E6E6"/>
<path d="M282.725 118.393C286.488 118.393 289.538 115.343 289.538 111.58C289.538 107.817 286.488 104.767 282.725 104.767C278.962 104.767 275.912 107.817 275.912 111.58C275.912 115.343 278.962 118.393 282.725 118.393Z" fill="#E6E6E6"/>
<path d="M317.214 118.393C320.977 118.393 324.028 115.343 324.028 111.58C324.028 107.817 320.977 104.767 317.214 104.767C313.451 104.767 310.401 107.817 310.401 111.58C310.401 115.343 313.451 118.393 317.214 118.393Z" fill="#E6E6E6"/>
<path d="M6.81285 153.315C10.5758 153.315 13.6262 150.265 13.6262 146.502C13.6262 142.739 10.5758 139.688 6.81285 139.688C3.04995 139.688 -0.000488281 142.739 -0.000488281 146.502C-0.000488281 150.265 3.04995 153.315 6.81285 153.315Z" fill="#E6E6E6"/>
<path d="M41.3016 153.315C45.0645 153.315 48.115 150.265 48.115 146.502C48.115 142.739 45.0645 139.688 41.3016 139.688C37.5387 139.688 34.4883 142.739 34.4883 146.502C34.4883 150.265 37.5387 153.315 41.3016 153.315Z" fill="#07E909"/>
<path d="M75.7909 153.315C79.5538 153.315 82.6042 150.265 82.6042 146.502C82.6042 142.739 79.5538 139.688 75.7909 139.688C72.028 139.688 68.9775 142.739 68.9775 146.502C68.9775 150.265 72.028 153.315 75.7909 153.315Z" fill="#E6E6E6"/>
<path d="M110.28 153.315C114.043 153.315 117.093 150.265 117.093 146.502C117.093 142.739 114.043 139.688 110.28 139.688C106.517 139.688 103.466 142.739 103.466 146.502C103.466 150.265 106.517 153.315 110.28 153.315Z" fill="#E6E6E6"/>
<path d="M144.769 153.315C148.532 153.315 151.582 150.265 151.582 146.502C151.582 142.739 148.532 139.688 144.769 139.688C141.006 139.688 137.956 142.739 137.956 146.502C137.956 150.265 141.006 153.315 144.769 153.315Z" fill="#E6E6E6"/>
<path d="M179.258 153.315C183.021 153.315 186.071 150.265 186.071 146.502C186.071 142.739 183.021 139.688 179.258 139.688C175.495 139.688 172.444 142.739 172.444 146.502C172.444 150.265 175.495 153.315 179.258 153.315Z" fill="#E6E6E6"/>
<path d="M213.747 153.315C217.51 153.315 220.56 150.265 220.56 146.502C220.56 142.739 217.51 139.688 213.747 139.688C209.984 139.688 206.934 142.739 206.934 146.502C206.934 150.265 209.984 153.315 213.747 153.315Z" fill="#E6E6E6"/>
<path d="M248.236 153.315C251.999 153.315 255.049 150.265 255.049 146.502C255.049 142.739 251.999 139.688 248.236 139.688C244.473 139.688 241.422 142.739 241.422 146.502C241.422 150.265 244.473 153.315 248.236 153.315Z" fill="#E6E6E6"/>
<path d="M282.725 153.315C286.488 153.315 289.538 150.265 289.538 146.502C289.538 142.739 286.488 139.688 282.725 139.688C278.962 139.688 275.912 142.739 275.912 146.502C275.912 150.265 278.962 153.315 282.725 153.315Z" fill="#E6E6E6"/>
<path d="M317.214 153.315C320.977 153.315 324.028 150.265 324.028 146.502C324.028 142.739 320.977 139.688 317.214 139.688C313.451 139.688 310.401 142.739 310.401 146.502C310.401 150.265 313.451 153.315 317.214 153.315Z" fill="#E6E6E6"/>
<path d="M6.81285 188.237C10.5758 188.237 13.6262 185.187 13.6262 181.424C13.6262 177.661 10.5758 174.61 6.81285 174.61C3.04995 174.61 -0.000488281 177.661 -0.000488281 181.424C-0.000488281 185.187 3.04995 188.237 6.81285 188.237Z" fill="#E6E6E6"/>
<path d="M41.3016 188.237C45.0645 188.237 48.115 185.187 48.115 181.424C48.115 177.661 45.0645 174.61 41.3016 174.61C37.5387 174.61 34.4883 177.661 34.4883 181.424C34.4883 185.187 37.5387 188.237 41.3016 188.237Z" fill="#E6E6E6"/>
<path d="M75.7909 188.237C79.5538 188.237 82.6042 185.187 82.6042 181.424C82.6042 177.661 79.5538 174.61 75.7909 174.61C72.028 174.61 68.9775 177.661 68.9775 181.424C68.9775 185.187 72.028 188.237 75.7909 188.237Z" fill="#E6E6E6"/>
<path d="M110.28 188.237C114.043 188.237 117.093 185.187 117.093 181.424C117.093 177.661 114.043 174.61 110.28 174.61C106.517 174.61 103.466 177.661 103.466 181.424C103.466 185.187 106.517 188.237 110.28 188.237Z" fill="#E6E6E6"/>
<path d="M144.769 188.237C148.532 188.237 151.582 185.187 151.582 181.424C151.582 177.661 148.532 174.61 144.769 174.61C141.006 174.61 137.956 177.661 137.956 181.424C137.956 185.187 141.006 188.237 144.769 188.237Z" fill="#E6E6E6"/>
<path d="M179.258 188.237C183.021 188.237 186.071 185.187 186.071 181.424C186.071 177.661 183.021 174.61 179.258 174.61C175.495 174.61 172.444 177.661 172.444 181.424C172.444 185.187 175.495 188.237 179.258 188.237Z" fill="#E6E6E6"/>
<path d="M213.747 188.237C217.51 188.237 220.56 185.187 220.56 181.424C220.56 177.661 217.51 174.61 213.747 174.61C209.984 174.61 206.934 177.661 206.934 181.424C206.934 185.187 209.984 188.237 213.747 188.237Z" fill="#E6E6E6"/>
<path d="M248.236 188.237C251.999 188.237 255.049 185.187 255.049 181.424C255.049 177.661 251.999 174.61 248.236 174.61C244.473 174.61 241.422 177.661 241.422 181.424C241.422 185.187 244.473 188.237 248.236 188.237Z" fill="#E6E6E6"/>
<path d="M282.725 188.237C286.488 188.237 289.538 185.187 289.538 181.424C289.538 177.661 286.488 174.61 282.725 174.61C278.962 174.61 275.912 177.661 275.912 181.424C275.912 185.187 278.962 188.237 282.725 188.237Z" fill="#E6E6E6"/>
<path d="M317.214 188.237C320.977 188.237 324.028 185.187 324.028 181.424C324.028 177.661 320.977 174.61 317.214 174.61C313.451 174.61 310.401 177.661 310.401 181.424C310.401 185.187 313.451 188.237 317.214 188.237Z" fill="#E6E6E6"/>
<path d="M6.81285 223.159C10.5758 223.159 13.6262 220.109 13.6262 216.346C13.6262 212.583 10.5758 209.532 6.81285 209.532C3.04995 209.532 -0.000488281 212.583 -0.000488281 216.346C-0.000488281 220.109 3.04995 223.159 6.81285 223.159Z" fill="#E6E6E6"/>
<path d="M41.3016 223.159C45.0645 223.159 48.115 220.109 48.115 216.346C48.115 212.583 45.0645 209.532 41.3016 209.532C37.5387 209.532 34.4883 212.583 34.4883 216.346C34.4883 220.109 37.5387 223.159 41.3016 223.159Z" fill="#E6E6E6"/>
<path d="M75.7909 223.159C79.5538 223.159 82.6042 220.109 82.6042 216.346C82.6042 212.583 79.5538 209.532 75.7909 209.532C72.028 209.532 68.9775 212.583 68.9775 216.346C68.9775 220.109 72.028 223.159 75.7909 223.159Z" fill="#07E909"/>
<path d="M110.28 223.159C114.043 223.159 117.093 220.109 117.093 216.346C117.093 212.583 114.043 209.532 110.28 209.532C106.517 209.532 103.466 212.583 103.466 216.346C103.466 220.109 106.517 223.159 110.28 223.159Z" fill="#E6E6E6"/>
<path d="M144.769 223.159C148.532 223.159 151.582 220.109 151.582 216.346C151.582 212.583 148.532 209.532 144.769 209.532C141.006 209.532 137.956 212.583 137.956 216.346C137.956 220.109 141.006 223.159 144.769 223.159Z" fill="#E6E6E6"/>
<path d="M179.258 223.159C183.021 223.159 186.071 220.109 186.071 216.346C186.071 212.583 183.021 209.532 179.258 209.532C175.495 209.532 172.444 212.583 172.444 216.346C172.444 220.109 175.495 223.159 179.258 223.159Z" fill="#E6E6E6"/>
<path d="M213.747 223.159C217.51 223.159 220.56 220.109 220.56 216.346C220.56 212.583 217.51 209.532 213.747 209.532C209.984 209.532 206.934 212.583 206.934 216.346C206.934 220.109 209.984 223.159 213.747 223.159Z" fill="#E6E6E6"/>
<path d="M248.236 223.159C251.999 223.159 255.049 220.109 255.049 216.346C255.049 212.583 251.999 209.532 248.236 209.532C244.473 209.532 241.422 212.583 241.422 216.346C241.422 220.109 244.473 223.159 248.236 223.159Z" fill="#E6E6E6"/>
<path d="M282.725 223.159C286.488 223.159 289.538 220.109 289.538 216.346C289.538 212.583 286.488 209.532 282.725 209.532C278.962 209.532 275.912 212.583 275.912 216.346C275.912 220.109 278.962 223.159 282.725 223.159Z" fill="#E6E6E6"/>
<path d="M317.214 223.159C320.977 223.159 324.028 220.109 324.028 216.346C324.028 212.583 320.977 209.532 317.214 209.532C313.451 209.532 310.401 212.583 310.401 216.346C310.401 220.109 313.451 223.159 317.214 223.159Z" fill="#E6E6E6"/>
<path d="M6.81285 258.081C10.5758 258.081 13.6262 255.031 13.6262 251.268C13.6262 247.505 10.5758 244.454 6.81285 244.454C3.04995 244.454 -0.000488281 247.505 -0.000488281 251.268C-0.000488281 255.031 3.04995 258.081 6.81285 258.081Z" fill="#E6E6E6"/>
<path d="M41.3016 258.081C45.0645 258.081 48.115 255.031 48.115 251.268C48.115 247.505 45.0645 244.454 41.3016 244.454C37.5387 244.454 34.4883 247.505 34.4883 251.268C34.4883 255.031 37.5387 258.081 41.3016 258.081Z" fill="#E6E6E6"/>
<path d="M75.7909 258.081C79.5538 258.081 82.6042 255.031 82.6042 251.268C82.6042 247.505 79.5538 244.454 75.7909 244.454C72.028 244.454 68.9775 247.505 68.9775 251.268C68.9775 255.031 72.028 258.081 75.7909 258.081Z" fill="#E6E6E6"/>
<path d="M110.28 258.081C114.043 258.081 117.093 255.031 117.093 251.268C117.093 247.505 114.043 244.454 110.28 244.454C106.517 244.454 103.466 247.505 103.466 251.268C103.466 255.031 106.517 258.081 110.28 258.081Z" fill="#E6E6E6"/>
<path d="M144.769 258.081C148.532 258.081 151.582 255.031 151.582 251.268C151.582 247.505 148.532 244.454 144.769 244.454C141.006 244.454 137.956 247.505 137.956 251.268C137.956 255.031 141.006 258.081 144.769 258.081Z" fill="#E6E6E6"/>
<path d="M179.258 258.081C183.021 258.081 186.071 255.031 186.071 251.268C186.071 247.505 183.021 244.454 179.258 244.454C175.495 244.454 172.444 247.505 172.444 251.268C172.444 255.031 175.495 258.081 179.258 258.081Z" fill="#E6E6E6"/>
<path d="M213.747 258.081C217.51 258.081 220.56 255.031 220.56 251.268C220.56 247.505 217.51 244.454 213.747 244.454C209.984 244.454 206.934 247.505 206.934 251.268C206.934 255.031 209.984 258.081 213.747 258.081Z" fill="#E6E6E6"/>
<path d="M248.236 258.081C251.999 258.081 255.049 255.031 255.049 251.268C255.049 247.505 251.999 244.454 248.236 244.454C244.473 244.454 241.422 247.505 241.422 251.268C241.422 255.031 244.473 258.081 248.236 258.081Z" fill="#E6E6E6"/>
<path d="M282.725 258.081C286.488 258.081 289.538 255.031 289.538 251.268C289.538 247.505 286.488 244.454 282.725 244.454C278.962 244.454 275.912 247.505 275.912 251.268C275.912 255.031 278.962 258.081 282.725 258.081Z" fill="#E6E6E6"/>
<path d="M317.214 258.081C320.977 258.081 324.028 255.031 324.028 251.268C324.028 247.505 320.977 244.454 317.214 244.454C313.451 244.454 310.401 247.505 310.401 251.268C310.401 255.031 313.451 258.081 317.214 258.081Z" fill="#E6E6E6"/>
<path d="M6.81285 293.003C10.5758 293.003 13.6262 289.952 13.6262 286.19C13.6262 282.427 10.5758 279.376 6.81285 279.376C3.04995 279.376 -0.000488281 282.427 -0.000488281 286.19C-0.000488281 289.952 3.04995 293.003 6.81285 293.003Z" fill="#E6E6E6"/>
<path d="M41.3016 293.003C45.0645 293.003 48.115 289.952 48.115 286.19C48.115 282.427 45.0645 279.376 41.3016 279.376C37.5387 279.376 34.4883 282.427 34.4883 286.19C34.4883 289.952 37.5387 293.003 41.3016 293.003Z" fill="#E6E6E6"/>
<path d="M75.7909 293.003C79.5538 293.003 82.6042 289.952 82.6042 286.19C82.6042 282.427 79.5538 279.376 75.7909 279.376C72.028 279.376 68.9775 282.427 68.9775 286.19C68.9775 289.952 72.028 293.003 75.7909 293.003Z" fill="#E6E6E6"/>
<path d="M110.28 293.003C114.043 293.003 117.093 289.952 117.093 286.19C117.093 282.427 114.043 279.376 110.28 279.376C106.517 279.376 103.466 282.427 103.466 286.19C103.466 289.952 106.517 293.003 110.28 293.003Z" fill="#E6E6E6"/>
<path d="M144.769 293.003C148.532 293.003 151.582 289.952 151.582 286.19C151.582 282.427 148.532 279.376 144.769 279.376C141.006 279.376 137.956 282.427 137.956 286.19C137.956 289.952 141.006 293.003 144.769 293.003Z" fill="#E6E6E6"/>
<path d="M179.258 293.003C183.021 293.003 186.071 289.952 186.071 286.19C186.071 282.427 183.021 279.376 179.258 279.376C175.495 279.376 172.444 282.427 172.444 286.19C172.444 289.952 175.495 293.003 179.258 293.003Z" fill="#E6E6E6"/>
<path d="M213.747 293.003C217.51 293.003 220.56 289.952 220.56 286.19C220.56 282.427 217.51 279.376 213.747 279.376C209.984 279.376 206.934 282.427 206.934 286.19C206.934 289.952 209.984 293.003 213.747 293.003Z" fill="#E6E6E6"/>
<path d="M248.236 293.003C251.999 293.003 255.049 289.952 255.049 286.19C255.049 282.427 251.999 279.376 248.236 279.376C244.473 279.376 241.422 282.427 241.422 286.19C241.422 289.952 244.473 293.003 248.236 293.003Z" fill="#E6E6E6"/>
<path d="M282.725 293.003C286.488 293.003 289.538 289.952 289.538 286.19C289.538 282.427 286.488 279.376 282.725 279.376C278.962 279.376 275.912 282.427 275.912 286.19C275.912 289.952 278.962 293.003 282.725 293.003Z" fill="#E6E6E6"/>
<path d="M317.214 293.003C320.977 293.003 324.028 289.952 324.028 286.19C324.028 282.427 320.977 279.376 317.214 279.376C313.451 279.376 310.401 282.427 310.401 286.19C310.401 289.952 313.451 293.003 317.214 293.003Z" fill="#E6E6E6"/>
<path d="M6.81285 327.925C10.5758 327.925 13.6262 324.875 13.6262 321.112C13.6262 317.349 10.5758 314.298 6.81285 314.298C3.04995 314.298 -0.000488281 317.349 -0.000488281 321.112C-0.000488281 324.875 3.04995 327.925 6.81285 327.925Z" fill="#E6E6E6"/>
<path d="M41.3016 327.925C45.0645 327.925 48.115 324.875 48.115 321.112C48.115 317.349 45.0645 314.298 41.3016 314.298C37.5387 314.298 34.4883 317.349 34.4883 321.112C34.4883 324.875 37.5387 327.925 41.3016 327.925Z" fill="#E6E6E6"/>
<path d="M75.7909 327.925C79.5538 327.925 82.6042 324.875 82.6042 321.112C82.6042 317.349 79.5538 314.298 75.7909 314.298C72.028 314.298 68.9775 317.349 68.9775 321.112C68.9775 324.875 72.028 327.925 75.7909 327.925Z" fill="#E6E6E6"/>
<path d="M110.28 327.925C114.043 327.925 117.093 324.875 117.093 321.112C117.093 317.349 114.043 314.298 110.28 314.298C106.517 314.298 103.466 317.349 103.466 321.112C103.466 324.875 106.517 327.925 110.28 327.925Z" fill="#E6E6E6"/>
<path d="M144.769 327.925C148.532 327.925 151.582 324.875 151.582 321.112C151.582 317.349 148.532 314.298 144.769 314.298C141.006 314.298 137.956 317.349 137.956 321.112C137.956 324.875 141.006 327.925 144.769 327.925Z" fill="#E6E6E6"/>
<path d="M179.258 327.925C183.021 327.925 186.071 324.875 186.071 321.112C186.071 317.349 183.021 314.298 179.258 314.298C175.495 314.298 172.444 317.349 172.444 321.112C172.444 324.875 175.495 327.925 179.258 327.925Z" fill="#E6E6E6"/>
<path d="M213.747 327.925C217.51 327.925 220.56 324.875 220.56 321.112C220.56 317.349 217.51 314.298 213.747 314.298C209.984 314.298 206.934 317.349 206.934 321.112C206.934 324.875 209.984 327.925 213.747 327.925Z" fill="#E6E6E6"/>
<path d="M248.236 327.925C251.999 327.925 255.049 324.875 255.049 321.112C255.049 317.349 251.999 314.298 248.236 314.298C244.473 314.298 241.422 317.349 241.422 321.112C241.422 324.875 244.473 327.925 248.236 327.925Z" fill="#E6E6E6"/>
<path d="M282.725 327.925C286.488 327.925 289.538 324.875 289.538 321.112C289.538 317.349 286.488 314.298 282.725 314.298C278.962 314.298 275.912 317.349 275.912 321.112C275.912 324.875 278.962 327.925 282.725 327.925Z" fill="#E6E6E6"/>
<path d="M317.214 327.925C320.977 327.925 324.028 324.875 324.028 321.112C324.028 317.349 320.977 314.298 317.214 314.298C313.451 314.298 310.401 317.349 310.401 321.112C310.401 324.875 313.451 327.925 317.214 327.925Z" fill="#E6E6E6"/>
<path d="M400.404 60.8919C402.689 60.8919 404.88 61.7994 406.495 63.4148C408.111 65.0303 409.018 67.2213 409.018 69.5059V414.065C409.018 415.196 408.795 416.317 408.363 417.362C407.93 418.407 407.295 419.356 406.495 420.156C405.695 420.956 404.746 421.591 403.701 422.023C402.656 422.456 401.535 422.679 400.404 422.679H153.183C152.052 422.679 150.932 422.456 149.886 422.023C148.841 421.591 147.892 420.956 147.092 420.156C146.292 419.356 145.657 418.407 145.225 417.362C144.792 416.317 144.569 415.196 144.569 414.065V69.5058C144.569 67.2213 145.476 65.0303 147.092 63.4148C148.707 61.7994 150.898 60.8918 153.183 60.8918H400.404" fill="#E6E6E6"/>
<path d="M154.186 413.062H399.401V70.5085H154.186V413.062Z" fill="white"/>
<path d="M344.844 124.704C345.07 124.704 345.294 124.749 345.503 124.835C345.712 124.922 345.902 125.049 346.062 125.209C346.222 125.369 346.349 125.559 346.435 125.768C346.522 125.977 346.567 126.201 346.567 126.427V129.872C346.567 130.329 346.385 130.768 346.062 131.091C345.739 131.414 345.301 131.595 344.844 131.595H208.743C208.517 131.595 208.293 131.551 208.084 131.464C207.875 131.378 207.685 131.251 207.525 131.091C207.365 130.931 207.238 130.741 207.151 130.532C207.065 130.323 207.02 130.099 207.02 129.872V126.427C207.02 126.201 207.065 125.977 207.151 125.768C207.238 125.559 207.365 125.369 207.525 125.209C207.685 125.049 207.875 124.922 208.084 124.835C208.293 124.749 208.517 124.704 208.743 124.704H344.844" fill="#E6E6E6"/>
<path d="M344.844 141.071C345.301 141.071 345.739 141.252 346.062 141.575C346.385 141.898 346.567 142.336 346.567 142.793V146.239C346.567 146.696 346.385 147.134 346.062 147.457C345.739 147.78 345.301 147.962 344.844 147.962H208.743C208.517 147.962 208.293 147.917 208.084 147.831C207.875 147.744 207.685 147.617 207.525 147.457C207.365 147.297 207.238 147.107 207.151 146.898C207.065 146.689 207.02 146.465 207.02 146.239V142.793C207.02 142.567 207.065 142.343 207.151 142.134C207.238 141.925 207.365 141.735 207.525 141.575C207.685 141.415 207.875 141.288 208.084 141.202C208.293 141.115 208.517 141.071 208.743 141.071H344.844" fill="#E6E6E6"/>
<path d="M344.844 157.437C345.301 157.437 345.739 157.619 346.062 157.942C346.385 158.265 346.567 158.703 346.567 159.16V162.606C346.567 163.063 346.385 163.501 346.062 163.824C345.739 164.147 345.301 164.328 344.844 164.328H208.743C208.286 164.328 207.848 164.147 207.525 163.824C207.202 163.501 207.02 163.063 207.02 162.606V159.16C207.02 158.703 207.202 158.265 207.525 157.942C207.848 157.619 208.286 157.437 208.743 157.437H344.844" fill="#07E909"/>
<path d="M344.844 174.162C345.301 174.162 345.739 174.344 346.062 174.667C346.385 174.99 346.567 175.428 346.567 175.885V179.331C346.567 179.787 346.385 180.226 346.062 180.549C345.739 180.872 345.301 181.053 344.844 181.053H208.743C208.517 181.053 208.293 181.009 208.084 180.922C207.875 180.836 207.685 180.709 207.525 180.549C207.365 180.389 207.238 180.199 207.151 179.99C207.065 179.781 207.02 179.557 207.02 179.331V175.885C207.02 175.659 207.065 175.435 207.151 175.226C207.238 175.017 207.365 174.827 207.525 174.667C207.685 174.507 207.875 174.38 208.084 174.293C208.293 174.207 208.517 174.162 208.743 174.162H344.844" fill="#E6E6E6"/>
<path d="M344.844 190.529C345.301 190.529 345.739 190.71 346.062 191.033C346.385 191.356 346.567 191.794 346.567 192.251V195.697C346.567 195.923 346.522 196.147 346.435 196.356C346.349 196.565 346.222 196.755 346.062 196.915C345.902 197.075 345.712 197.202 345.503 197.289C345.294 197.375 345.07 197.42 344.844 197.42H208.743C208.517 197.42 208.293 197.375 208.084 197.289C207.875 197.202 207.685 197.075 207.525 196.915C207.365 196.755 207.238 196.565 207.151 196.356C207.065 196.147 207.02 195.923 207.02 195.697V192.251C207.02 192.025 207.065 191.801 207.151 191.592C207.238 191.383 207.365 191.193 207.525 191.033C207.685 190.873 207.875 190.746 208.084 190.66C208.293 190.573 208.517 190.529 208.743 190.529H344.844" fill="#E6E6E6"/>
<path d="M344.844 206.895C345.301 206.895 345.739 207.077 346.062 207.4C346.385 207.723 346.567 208.161 346.567 208.618V212.063C346.567 212.52 346.385 212.959 346.062 213.282C345.739 213.605 345.301 213.786 344.844 213.786H208.743C208.286 213.786 207.848 213.605 207.525 213.282C207.202 212.959 207.02 212.52 207.02 212.063V208.618C207.02 208.161 207.202 207.723 207.525 207.4C207.848 207.077 208.286 206.895 208.743 206.895H344.844" fill="#E6E6E6"/>
<path d="M209.612 261.951C209.082 261.952 208.574 262.163 208.199 262.538C207.824 262.912 207.613 263.421 207.612 263.951V356.867C207.613 357.397 207.824 357.905 208.199 358.28C208.574 358.655 209.082 358.866 209.612 358.867H343.743C344.273 358.866 344.782 358.655 345.157 358.28C345.532 357.905 345.743 357.397 345.743 356.867V263.951C345.743 263.421 345.532 262.912 345.157 262.538C344.782 262.163 344.273 261.952 343.743 261.951H209.612Z" fill="#07E909"/>
<path d="M277.241 161.182L275.833 160.808L306.56 45.2209H484.785V46.6779H307.679L277.241 161.182Z" fill="#3F3D56"/>
<path d="M499.348 61.2405C496.323 61.2405 493.367 60.3437 490.852 58.6636C488.338 56.9834 486.378 54.5952 485.221 51.8012C484.063 49.0072 483.76 45.9327 484.35 42.9665C484.94 40.0004 486.397 37.2758 488.535 35.1373C490.674 32.9988 493.398 31.5425 496.364 30.9525C499.331 30.3625 502.405 30.6653 505.199 31.8227C507.993 32.98 510.381 34.9399 512.062 37.4544C513.742 39.969 514.638 42.9254 514.638 45.9496C514.634 50.0036 513.021 53.8902 510.155 56.7568C507.288 59.6234 503.402 61.2359 499.348 61.2405V61.2405ZM499.348 32.115C496.611 32.115 493.937 32.9264 491.661 34.4465C489.386 35.9667 487.613 38.1274 486.566 40.6553C485.519 43.1833 485.245 45.965 485.779 48.6486C486.313 51.3323 487.63 53.7974 489.565 55.7322C491.5 57.667 493.965 58.9846 496.649 59.5184C499.332 60.0522 502.114 59.7783 504.642 58.7311C507.17 57.684 509.33 55.9108 510.851 53.6357C512.371 51.3606 513.182 48.6858 513.182 45.9496C513.178 42.2817 511.719 38.7652 509.126 36.1717C506.532 33.5781 503.015 32.1192 499.348 32.115Z" fill="#3F3D56"/>
<path d="M499.348 51.7747C502.565 51.7747 505.173 49.1667 505.173 45.9496C505.173 42.7325 502.565 40.1245 499.348 40.1245C496.13 40.1245 493.522 42.7325 493.522 45.9496C493.522 49.1667 496.13 51.7747 499.348 51.7747Z" fill="#07E909"/>
<path d="M272.477 356.941L273.884 357.317L242.937 472.845L64.7119 472.504L64.7149 471.047L241.82 471.387L272.477 356.941Z" fill="#3F3D56"/>
<path d="M50.1796 456.457C53.2038 456.463 56.1584 457.365 58.6698 459.05C61.1812 460.735 63.1364 463.127 64.2884 465.923C65.4404 468.719 65.7373 471.795 65.1416 474.76C64.5459 477.725 63.0844 480.446 60.9419 482.581C58.7993 484.715 56.0719 486.166 53.1046 486.75C50.1374 487.335 47.0635 487.026 44.2716 485.863C41.4798 484.701 39.0955 482.736 37.4201 480.218C35.7447 477.701 34.8536 474.743 34.8594 471.718C34.8718 467.664 36.4917 463.781 39.3638 460.92C42.2359 458.059 46.1256 456.454 50.1796 456.457V456.457ZM50.1238 485.582C52.86 485.588 55.5363 484.781 57.8143 483.265C60.0923 481.75 61.8697 479.592 62.9216 477.066C63.9736 474.54 64.2529 471.759 63.7242 469.075C63.1956 466.39 61.8827 463.922 59.9516 461.984C58.0205 460.045 55.5579 458.723 52.8753 458.184C50.1926 457.645 47.4104 457.914 44.8805 458.956C42.3505 459.998 40.1865 461.767 38.662 464.039C37.1374 466.312 36.3209 468.985 36.3157 471.721C36.3128 475.389 37.765 478.908 40.3536 481.507C42.9422 484.105 46.4559 485.571 50.1238 485.582V485.582Z" fill="#3F3D56"/>
<path d="M50.1503 477.573C53.3674 477.573 55.9754 474.965 55.9754 471.748C55.9754 468.531 53.3674 465.922 50.1503 465.922C46.9332 465.922 44.3252 468.531 44.3252 471.748C44.3252 474.965 46.9332 477.573 50.1503 477.573Z" fill="#07E909"/>
<path d="M616.828 600.594H606.551L608.386 543.702L635.548 545.17L616.828 600.594Z" fill="#FFB8B8"/>
<path d="M618.231 633.29C615.129 634.706 612.53 623.236 609.914 625.807C602.595 633 595.032 634.566 585.263 631.426L585.036 631.387C584.447 631.198 583.902 630.891 583.435 630.484C582.967 630.078 582.587 629.581 582.318 629.024C582.048 628.466 581.895 627.86 581.866 627.241C581.838 626.623 581.935 626.005 582.153 625.425C582.413 624.731 582.838 624.111 583.391 623.618C583.944 623.124 584.608 622.773 585.327 622.593L593.111 620.647L605.333 599.153L617.809 598.311C620.591 601.857 622.532 605.987 623.487 610.392C624.442 614.796 624.386 619.36 623.322 623.739C622.19 628.361 620.442 632.281 618.231 633.29Z" fill="#2F2E41"/>
<path d="M714.467 593.074L704.91 596.854L685.691 543.275L711.489 534.65L714.467 593.074Z" fill="#FFB8B8"/>
<path d="M727.796 622.962C725.432 625.42 718.797 615.709 717.31 619.063C713.149 628.443 706.693 632.681 696.453 633.354L696.229 633.402C695.611 633.442 694.991 633.357 694.407 633.151C693.823 632.945 693.287 632.623 692.831 632.204C692.376 631.785 692.01 631.277 691.756 630.712C691.502 630.148 691.365 629.537 691.354 628.918C691.341 628.177 691.508 627.444 691.841 626.782C692.173 626.12 692.662 625.549 693.264 625.117L699.787 620.445L703.247 595.962L714.539 590.59C718.43 592.864 721.754 595.991 724.262 599.736C726.77 603.48 728.396 607.745 729.018 612.208C729.665 616.922 729.482 621.21 727.796 622.962Z" fill="#2F2E41"/>
<path d="M683.266 318.361L667.488 322.418C666.294 322.725 665.047 322.761 663.837 322.523C662.627 322.285 661.486 321.779 660.498 321.042C659.509 320.306 658.698 319.357 658.124 318.266C657.55 317.175 657.227 315.97 657.18 314.738C657.136 313.605 657.326 312.476 657.738 311.42C658.15 310.364 658.775 309.404 659.574 308.6C660.373 307.796 661.33 307.165 662.383 306.746C663.436 306.328 664.565 306.131 665.698 306.167L679.596 306.615L706.377 296.864L681.064 277.986L684 251.559L733.332 291.163C734.211 291.869 734.936 292.749 735.46 293.748C735.983 294.748 736.295 295.844 736.375 296.969V296.969C736.511 298.861 735.986 300.74 734.89 302.288C733.794 303.836 732.196 304.955 730.367 305.457C718.808 314.89 701.968 317.779 683.266 318.361Z" fill="#FFB8B8"/>
<path d="M647.296 219.259C661.486 219.259 672.989 207.756 672.989 193.566C672.989 179.376 661.486 167.873 647.296 167.873C633.106 167.873 621.603 179.376 621.603 193.566C621.603 207.756 633.106 219.259 647.296 219.259Z" fill="#FFB8B8"/>
<path d="M678.862 228.802L644.36 242.75C645.373 231.843 642.514 220.928 636.285 211.918L664.914 205.311C664.542 214.055 669.27 221.871 678.862 228.802Z" fill="#FFB8B8"/>
<path d="M685.101 288.63C657.289 290.856 642.076 287.163 618.667 273.581L627.475 253.027C627.033 249.932 627.453 246.775 628.689 243.903C629.924 241.032 631.928 238.556 634.479 236.749L643.625 230.27L671.521 222.195L672.772 222.258C676.483 222.443 679.999 223.976 682.661 226.567C685.323 229.159 686.949 232.633 687.234 236.337C693.294 254.448 693.333 271.954 685.101 288.63Z" fill="#07E909"/>
<path d="M679.596 331.574L620.135 324.968L615.73 305.881C605.967 291.143 610.229 277.644 621.603 264.772C642.336 278.078 661.581 283.828 689.139 279.454C681.81 297.278 675.042 314.794 679.596 331.574Z" fill="#2F2E41"/>
<path d="M725.844 554.003L678.495 551.434L663.079 428.841L650.6 550.7L594.442 548.13C611.572 468.019 623.473 391.967 620.135 322.031L678.862 327.17C698.765 348.156 708.648 381.655 714.465 421.5C720.283 461.345 724.972 507.536 725.844 554.003Z" fill="#2F2E41"/>
<path d="M675.58 170.176C680.457 170.176 684.411 166.222 684.411 161.345C684.411 156.468 680.457 152.514 675.58 152.514C670.702 152.514 666.749 156.468 666.749 161.345C666.749 166.222 670.702 170.176 675.58 170.176Z" fill="#2F2E41"/>
<path d="M666.48 159.183C666.625 156.942 667.619 154.841 669.259 153.307C670.899 151.774 673.062 150.923 675.307 150.929C675.125 150.905 674.944 150.877 674.758 150.865C672.421 150.715 670.12 151.5 668.36 153.046C666.601 154.593 665.529 156.775 665.379 159.112C665.228 161.449 666.013 163.751 667.559 165.51C669.106 167.269 671.288 168.341 673.625 168.492C673.811 168.504 673.994 168.499 674.178 168.499C671.95 168.217 669.914 167.096 668.484 165.365C667.054 163.634 666.337 161.423 666.48 159.183V159.183Z" fill="#2F2E41"/>
<path d="M666.43 162.954C658.554 156.42 635.963 164.724 634.506 169.117C623.855 170.569 615.791 176.783 615.791 187.832V187.832C622.123 190.426 629.325 190.106 637.11 187.832C649.52 197.945 650.37 210.659 642.823 225.261L652.108 225.447L663.617 208.626L664.168 225.688L685.451 225.261V200.81C685.52 192.68 683.649 184.651 679.993 177.39C676.676 170.946 671.529 167.184 666.43 162.954Z" fill="#2F2E41"/>
<path d="M646.611 206.154C648.944 206.154 650.834 203.507 650.834 200.241C650.834 196.976 648.944 194.329 646.611 194.329C644.279 194.329 642.388 196.976 642.388 200.241C642.388 203.507 644.279 206.154 646.611 206.154Z" fill="#FFB8B8"/>
<path d="M614.308 426.99C614.702 426.99 615.079 427.146 615.357 427.424C615.635 427.702 615.791 428.079 615.791 428.473V487.792C615.791 488.185 615.635 488.562 615.357 488.84C615.079 489.119 614.702 489.275 614.308 489.275H571.747C571.353 489.275 570.976 489.119 570.698 488.84C570.42 488.562 570.264 488.185 570.264 487.792V428.473C570.264 428.079 570.42 427.702 570.698 427.424C570.976 427.146 571.353 426.99 571.747 426.99H614.308" fill="#07E909"/>
<path d="M620.135 404.983L621.572 429.897C621.665 431.5 621.399 433.105 620.794 434.593C620.19 436.081 619.261 437.416 618.076 438.5C616.891 439.585 615.48 440.392 613.944 440.863C612.408 441.334 610.787 441.457 609.197 441.224C602.868 440.293 602.724 434.102 604.276 427.896L610.187 404.249C624.69 352.251 628.605 301.213 627.871 251.437C627.841 249.749 628.154 248.073 628.79 246.509C629.426 244.945 630.372 243.526 631.571 242.338C632.771 241.15 634.198 240.217 635.768 239.596C637.338 238.974 639.017 238.678 640.705 238.723C642.351 238.771 643.972 239.144 645.474 239.82C646.975 240.497 648.328 241.464 649.455 242.665C650.581 243.867 651.459 245.279 652.038 246.821C652.617 248.363 652.884 250.005 652.826 251.651C650.773 310.101 642.248 363.18 620.135 404.983Z" fill="#FFB8B8"/>
</g>
<defs>
<clipPath id="clip0_68_178">
<rect width="782.39" height="634.123" fill="white"/>
</clipPath>
</defs>
</svg>
