<svg width="925" height="642" viewBox="0 0 925 642" fill="none" xmlns="http://www.w3.org/2000/svg">
<g clip-path="url(#clip0_68_43)">
<path d="M764.224 548.827C767.964 518.75 786.605 489.114 815.289 479.326C803.977 510.285 803.979 544.247 815.296 575.203C819.704 587.126 825.848 599.928 821.702 611.945C819.122 619.422 812.812 625.142 805.758 628.719C798.703 632.296 790.874 634.001 783.143 635.672L781.621 636.93C769.348 609.217 760.483 578.905 764.224 548.827Z" fill="#F0F0F0"/>
<path d="M815.574 479.895C798.869 498.612 788.487 522.117 785.901 547.071C785.249 552.433 785.447 557.865 786.486 563.165C787.665 568.296 790.197 573.017 793.818 576.839C797.123 580.47 800.924 583.801 803.288 588.172C804.465 590.428 805.153 592.906 805.305 595.446C805.457 597.986 805.07 600.529 804.17 602.908C802.083 608.896 797.968 613.777 793.778 618.41C789.126 623.554 784.213 628.823 782.235 635.643C781.996 636.469 780.728 636.049 780.967 635.224C784.407 623.359 795.925 616.62 801.418 605.933C803.981 600.946 805.057 595.157 802.654 589.893C800.553 585.29 796.636 581.851 793.258 578.204C789.671 574.528 787.039 570.029 785.591 565.101C784.285 559.87 783.879 554.456 784.39 549.089C785.347 536.988 788.201 525.112 792.847 513.898C798.079 501.069 805.466 489.231 814.69 478.893C815.261 478.254 816.141 479.26 815.574 479.895H815.574Z" fill="white"/>
<path d="M786.261 538.987C782.133 537.985 778.496 535.548 775.999 532.112C773.502 528.675 772.308 524.463 772.63 520.228C772.698 519.371 774.032 519.437 773.964 520.294C773.657 524.238 774.77 528.161 777.102 531.357C779.433 534.552 782.831 536.808 786.68 537.718C787.516 537.917 787.092 539.185 786.261 538.987V538.987Z" fill="white"/>
<path d="M791.9 575.218C799.355 570.767 804.859 563.669 807.313 555.34C807.556 554.514 808.824 554.934 808.582 555.759C806.012 564.421 800.269 571.796 792.501 576.412C791.76 576.851 791.163 575.655 791.9 575.218V575.218Z" fill="white"/>
<path d="M799.318 502.335C800.834 503.056 802.506 503.388 804.183 503.303C805.859 503.218 807.489 502.718 808.924 501.847C809.659 501.399 810.255 502.595 809.525 503.04C807.935 503.995 806.135 504.545 804.282 504.643C802.43 504.741 800.582 504.384 798.899 503.603C798.735 503.543 798.599 503.422 798.52 503.266C798.441 503.109 798.425 502.928 798.475 502.76C798.531 502.592 798.651 502.453 798.809 502.374C798.967 502.294 799.15 502.28 799.318 502.335V502.335Z" fill="white"/>
<path d="M902.725 533.049C902.274 533.342 901.824 533.635 901.372 533.939C895.331 537.912 889.623 542.368 884.303 547.265C883.886 547.637 883.469 548.021 883.063 548.404C870.373 560.339 860.01 574.525 852.499 590.243C849.516 596.5 847.013 602.975 845.012 609.612C842.25 618.778 839.984 628.936 834.516 636.434C833.954 637.222 833.344 637.975 832.689 638.688H783.274C783.162 638.632 783.049 638.587 782.936 638.531L780.963 638.621C781.043 638.271 781.132 637.911 781.212 637.561C781.257 637.358 781.313 637.155 781.358 636.952C781.392 636.817 781.426 636.682 781.448 636.558C781.459 636.513 781.471 636.467 781.482 636.434C781.505 636.31 781.539 636.197 781.561 636.084C782.057 634.066 782.568 632.048 783.094 630.03C783.094 630.019 783.094 630.019 783.105 630.007C787.153 614.64 792.519 599.477 800.017 585.609C800.242 585.192 800.468 584.764 800.716 584.347C804.13 578.115 808.048 572.172 812.43 566.578C814.839 563.523 817.402 560.592 820.108 557.796C827.113 550.584 835.209 544.52 844.099 539.825C861.823 530.467 882.341 526.882 901.282 532.598C901.767 532.744 902.241 532.891 902.725 533.049Z" fill="#F0F0F0"/>
<path d="M902.614 533.676C878.007 538.563 855.566 551.079 838.478 569.447C834.729 573.336 831.616 577.791 829.255 582.649C827.107 587.456 826.286 592.75 826.876 597.981C827.329 602.87 828.358 607.819 827.614 612.732C827.196 615.242 826.253 617.635 824.845 619.754C823.437 621.873 821.598 623.671 819.446 625.029C814.174 628.553 807.95 629.973 801.816 631.15C795.004 632.456 787.909 633.705 782.224 637.96C781.535 638.475 780.776 637.376 781.463 636.862C791.354 629.459 804.608 631.013 815.428 625.787C820.477 623.349 824.821 619.374 826.072 613.724C827.166 608.784 826.109 603.68 825.608 598.734C824.957 593.639 825.563 588.463 827.374 583.656C829.481 578.694 832.417 574.126 836.056 570.148C844.106 561.062 853.534 553.299 863.996 547.142C875.897 540.049 888.923 535.044 902.512 532.344C903.353 532.177 903.45 533.51 902.614 533.676V533.676Z" fill="white"/>
<path d="M843.632 563.209C840.939 559.923 839.502 555.788 839.578 551.541C839.653 547.294 841.235 543.212 844.042 540.024C844.612 539.381 845.638 540.236 845.068 540.88C842.448 543.844 840.975 547.647 840.913 551.602C840.851 555.557 842.205 559.404 844.73 562.448C845.278 563.11 844.177 563.867 843.632 563.209V563.209Z" fill="white"/>
<path d="M826.321 595.533C834.953 596.467 843.621 594.113 850.596 588.941C851.286 588.428 852.046 589.527 851.356 590.039C844.088 595.408 835.063 597.839 826.082 596.847C825.226 596.752 825.469 595.438 826.321 595.533V595.533Z" fill="white"/>
<path d="M876.124 541.806C876.901 543.294 878.035 544.566 879.425 545.507C880.815 546.449 882.417 547.03 884.088 547.2C884.945 547.284 884.7 548.598 883.849 548.514C882.005 548.319 880.236 547.674 878.698 546.637C877.16 545.6 875.899 544.203 875.026 542.566C874.931 542.419 874.895 542.241 874.927 542.068C874.958 541.896 875.054 541.741 875.195 541.637C875.341 541.537 875.52 541.498 875.694 541.53C875.868 541.562 876.023 541.661 876.124 541.806V541.806Z" fill="white"/>
<path d="M604.622 396.977C605.645 395.921 606.423 394.653 606.902 393.264C607.382 391.874 607.551 390.396 607.397 388.934C607.244 387.472 606.772 386.061 606.014 384.801C605.256 383.542 604.232 382.463 603.012 381.642L612.148 347.095L594.547 353.015L588.57 384.914C587.327 387.054 586.911 389.576 587.403 392.002C587.895 394.428 589.259 396.589 591.238 398.076C593.217 399.563 595.672 400.272 598.139 400.07C600.606 399.867 602.912 398.767 604.622 396.977V396.977Z" fill="#9E616A"/>
<path d="M686.055 629.029L673.795 629.028L667.963 581.74L686.057 581.741L686.055 629.029Z" fill="#9E616A"/>
<path d="M689.182 640.913L649.651 640.911V640.411C649.651 636.33 651.272 632.417 654.158 629.532C657.043 626.646 660.957 625.025 665.037 625.025H665.038L689.182 625.026L689.182 640.913Z" fill="#2F2E41"/>
<path d="M628.055 629.029L615.795 629.028L609.963 581.74L628.057 581.741L628.055 629.029Z" fill="#9E616A"/>
<path d="M631.182 640.913L591.651 640.911V640.411C591.651 636.33 593.272 632.417 596.158 629.532C599.043 626.646 602.957 625.025 607.037 625.025H607.038L631.182 625.026L631.182 640.913Z" fill="#2F2E41"/>
<path d="M621.237 344.109L616.531 345.409C616.531 345.409 604.237 425.109 603.237 467.109C602.237 509.109 606.237 615.109 606.237 615.109H632.237L653.237 435.109L663.237 615.109H691.237C691.237 615.109 711.237 379.109 702.237 360.109C693.237 341.109 621.237 344.109 621.237 344.109Z" fill="#2F2E41"/>
<path d="M658.744 203.477C671.719 203.477 682.237 192.958 682.237 179.984C682.237 167.009 671.719 156.491 658.744 156.491C645.769 156.491 635.251 167.009 635.251 179.984C635.251 192.958 645.769 203.477 658.744 203.477Z" fill="#9E616A"/>
<path d="M718.236 234.109L681.772 210.279L643.986 211.767L607.236 232.109L621.236 310.109L615.236 355.109C615.236 355.109 669.236 349.109 681.236 358.109C688.244 363.449 696.51 366.893 705.236 368.109L703.236 291.109L718.236 234.109Z" fill="#3F3D56"/>
<path d="M614.236 231.109L610.458 230.325L607.236 232.109C607.236 232.109 598.236 244.109 598.236 255.109C598.236 266.109 587.236 372.109 587.236 372.109L607.236 381.109L623.236 298.109L614.236 231.109Z" fill="#3F3D56"/>
<path d="M679.317 162.759C679.317 162.759 685.462 151.012 671.944 149.945C671.944 149.945 660.419 139.491 648.673 148.033C648.673 148.033 642.266 148.033 638.762 155.284C638.762 155.284 633.723 153.373 632.615 158.487C632.615 158.487 628.928 169.166 632.615 178.777C636.303 188.388 637.527 189.455 637.527 189.455C637.527 189.455 631.468 169.306 646.217 168.238C660.965 167.17 677.469 157.954 678.698 169.7C679.927 181.446 681.776 184.341 681.776 184.341C681.776 184.341 693.45 167.564 679.317 162.759Z" fill="#2F2E41"/>
<path d="M375.736 300.964H84.7358V82.9641H375.736V300.964Z" fill="white"/>
<path d="M375.736 300.964H84.7358V82.9641H375.736V300.964ZM87.7358 85.9641V297.964H372.736V85.9641H87.7358Z" fill="#E6E6E6"/>
<path d="M230.145 247.782C260.746 247.782 285.554 222.975 285.554 192.373C285.554 161.772 260.746 136.964 230.145 136.964C199.543 136.964 174.736 161.772 174.736 192.373C174.736 222.975 199.543 247.782 230.145 247.782Z" fill="#07E909"/>
<path d="M253.154 187.72H234.315V168.881C234.315 167.706 233.848 166.578 233.016 165.747C232.185 164.915 231.057 164.448 229.882 164.448C228.706 164.448 227.579 164.915 226.747 165.747C225.916 166.578 225.449 167.706 225.449 168.881V187.72H206.61C205.434 187.72 204.307 188.187 203.475 189.019C202.644 189.85 202.177 190.978 202.177 192.153V192.153C202.177 193.329 202.644 194.456 203.475 195.288C204.307 196.119 205.434 196.586 206.61 196.586H225.449V215.425C225.449 216.601 225.916 217.728 226.747 218.56C227.579 219.391 228.706 219.858 229.882 219.858V219.858C231.057 219.858 232.185 219.391 233.016 218.56C233.848 217.728 234.315 216.601 234.315 215.425V196.586H253.154C254.329 196.586 255.457 196.119 256.288 195.288C257.12 194.456 257.587 193.329 257.587 192.153V192.153C257.587 190.978 257.12 189.85 256.288 189.019C255.457 188.187 254.329 187.72 253.154 187.72V187.72Z" fill="white"/>
<path d="M108.739 82.0542H0V0H108.739V82.0542Z" fill="white"/>
<path d="M108.739 82.0542H0V0H108.739V82.0542ZM2 80.0542H106.739V2H2V80.0542Z" fill="#E6E6E6"/>
<path d="M94.3958 22.3481H14.3418V27.6851H94.3958V22.3481Z" fill="#E4E4E4"/>
<path d="M94.3958 38.3579H14.3418V43.6949H94.3958V38.3579Z" fill="#E4E4E4"/>
<path d="M94.3958 54.3691H14.3418V59.7061H94.3958V54.3691Z" fill="#E4E4E4"/>
<path d="M831.739 641.054H723V559H831.739V641.054Z" fill="white"/>
<path d="M831.739 641.054H723V559H831.739V641.054ZM725 639.054H829.739V561H725V639.054Z" fill="#E6E6E6"/>
<path d="M817.396 581.348H737.342V586.685H817.396V581.348Z" fill="#E4E4E4"/>
<path d="M817.396 597.358H737.342V602.695H817.396V597.358Z" fill="#E4E4E4"/>
<path d="M817.396 613.369H737.342V618.706H817.396V613.369Z" fill="#E4E4E4"/>
<path d="M765.702 493.822L684.48 421.522L739.038 360.232L820.259 432.532L765.702 493.822Z" fill="white"/>
<path d="M765.702 493.822L684.48 421.522L739.038 360.232L820.259 432.532L765.702 493.822ZM687.304 421.358L765.538 490.998L817.435 432.697L739.202 363.056L687.304 421.358Z" fill="#E6E6E6"/>
<path d="M734.891 386.461L731.343 390.447L791.138 443.675L794.687 439.688L734.891 386.461Z" fill="#E4E4E4"/>
<path d="M724.246 398.419L720.698 402.406L780.493 455.633L784.042 451.647L724.246 398.419Z" fill="#E4E4E4"/>
<path d="M713.6 410.379L710.052 414.365L769.847 467.592L773.396 463.606L713.6 410.379Z" fill="#E4E4E4"/>
<path d="M170.307 130.054H49V38.5166H170.307V130.054Z" fill="white"/>
<path d="M170.307 130.054H49V38.5166H170.307V130.054ZM51.2311 127.823H168.075V40.7477H51.2311V127.823Z" fill="#E6E6E6"/>
<path d="M154.306 63.4475H64.9995V69.4013H154.306V63.4475Z" fill="#07E909"/>
<path d="M154.306 81.3079H64.9995V87.2617H154.306V81.3079Z" fill="#07E909"/>
<path d="M154.306 99.1694H64.9995V105.123H154.306V99.1694Z" fill="#07E909"/>
<path d="M485.117 369.688H300V230H485.117V369.688Z" fill="white"/>
<path d="M485.117 369.688H300V230H485.117V369.688ZM303.405 366.284H481.712V233.405H303.405V366.284Z" fill="#E6E6E6"/>
<path d="M460.699 268.045H324.416V277.131H460.699V268.045Z" fill="#07E909"/>
<path d="M460.699 295.3H324.416V304.386H460.699V295.3Z" fill="#07E909"/>
<path d="M460.699 322.558H324.416V331.643H460.699V322.558Z" fill="#07E909"/>
<path d="M923.575 641.989H443.281C442.966 641.988 442.664 641.862 442.442 641.639C442.219 641.416 442.094 641.114 442.094 640.799C442.094 640.483 442.219 640.181 442.442 639.958C442.664 639.735 442.966 639.609 443.281 639.608H923.575C923.891 639.608 924.194 639.733 924.417 639.957C924.641 640.18 924.766 640.483 924.766 640.799C924.766 641.114 924.641 641.417 924.417 641.641C924.194 641.864 923.891 641.989 923.575 641.989Z" fill="#CACACA"/>
<path d="M705.805 396.224C705.089 394.94 704.663 393.515 704.557 392.049C704.452 390.582 704.669 389.111 705.193 387.737C705.718 386.364 706.537 385.122 707.593 384.1C708.649 383.078 709.917 382.299 711.307 381.819L711.367 346.085L726.852 356.334L724.421 388.697C725.072 391.085 724.824 393.629 723.725 395.846C722.625 398.064 720.751 399.801 718.456 400.729C716.162 401.657 713.606 401.71 711.275 400.88C708.943 400.05 706.997 398.393 705.805 396.224V396.224Z" fill="#9E616A"/>
<path d="M707.236 238.109L714.154 231.441L719.236 235.109C719.236 235.109 724.236 241.109 728.236 259.109C732.236 277.109 728.236 376.109 728.236 376.109L706.236 373.109L709.236 321.109L700.236 277.109L707.236 238.109Z" fill="#3F3D56"/>
</g>
<defs>
<clipPath id="clip0_68_43">
<rect width="924.766" height="641.989" fill="white"/>
</clipPath>
</defs>
</svg>
